<?xml version="1.0" standalone="no"?>
<!DOCTYPE svg PUBLIC "-//W3C//DTD SVG 1.1//EN" "http://www.w3.org/Graphics/SVG/1.1/DTD/svg11.dtd" >
<!--
2013-9-30: Created.
-->
<svg>
<metadata>
Created by iconfont
</metadata>
<defs>

<font id="iconfont" horiz-adv-x="1024" >
  <font-face
    font-family="iconfont"
    font-weight="500"
    font-stretch="normal"
    units-per-em="1024"
    ascent="896"
    descent="-128"
  />
    <missing-glyph />
    
    <glyph glyph-name="xinxi" unicode="&#58882;" d="M512 841.728q95.232 0 178.688-36.352t145.408-98.304 98.304-145.92 36.352-179.2-36.352-178.688-98.304-145.408-145.408-98.304-178.688-36.352-179.2 36.352-145.92 98.304-98.304 145.408-36.352 178.688 36.352 179.2 98.304 145.92 145.92 98.304 179.2 36.352zM567.296 445.44q0 24.576-15.872 41.472t-39.424 16.896-39.936-16.896-16.384-41.472l0-343.04q0-24.576 16.384-39.424t39.936-14.848 39.936 15.36 16.384 39.936zM512 572.416q29.696 0 50.688 20.992t20.992 50.688-20.992 50.688-50.688 20.992-51.2-20.992-21.504-50.688 21.504-50.688 51.2-20.992z"  horiz-adv-x="1024" />

    
    <glyph glyph-name="shouyeicon" unicode="&#58918;" d="M849.877799 438.929166 849.877799 723.121763 687.484222 723.121763l0-121.79902L525.083481 763.720414 78.493214 317.156752l81.1973 0 0-446.607664 243.598041 0L403.288554 235.929776l243.598041 0 0-365.380688 243.590877 0L890.477472 317.156752l81.20344 0L849.877799 438.929166zM443.766454-129.606455l162.599262 0L606.365716 195.222655 443.766454 195.222655 443.766454-129.606455z"  horiz-adv-x="1024" />

    
    <glyph glyph-name="shezhi" unicode="&#59552;" d="M973.376 422.624l-90.112 0c-8.512 17.728-20.48 54.464-35.968 80.576l63.68 59.648c19.968 19.52 20.032 50.048 0 69.376L838.4 701.984c-20.032 19.328-52.608 19.136-72.704-0.192l-60.032-61.568c-27.2 14.848-65.28 26.432-83.52 34.624L622.144 761.76c0 27.456-30.08 49.6-58.496 49.6L460.992 811.36c-28.288 0-58.432-22.144-58.432-49.6l0-86.976C384.256 666.592 346.24 654.944 319.168 640.096L257.28 701.536c-20.096 19.392-51.712 19.392-71.744 0L113.344 631.456C93.312 612.064 93.44 580.64 113.6 561.184l63.744-57.984C161.92 477.024 149.952 440.352 141.44 422.624L51.392 422.624C22.976 422.624 0 393.568 0 366.176l0-99.2c0-27.392 22.976-56.448 51.392-56.448L141.44 210.528c8.512-17.6 20.544-54.336 35.968-80.576L113.792 70.24c-20.032-19.392-20.032-49.856 0-69.248l72.64-69.888c20.032-19.264 52.544-19.2 72.64 0.448l60.096 61.44c27.072-14.784 65.152-26.368 83.456-34.624l0-86.912c0-27.392 30.08-49.664 58.432-49.664l102.72 0c28.416 0 58.496 22.336 58.496 49.664l0 86.912c18.24 8.256 56.32 19.904 83.584 34.752l61.696-61.44c20.096-19.52 51.776-19.52 71.744 0l72.256 70.208c20.032 19.264 19.904 50.688-0.384 70.144l-63.616 57.984c15.36 26.176 27.328 62.848 35.84 80.512l90.112 0c28.352 0 51.392 29.12 51.392 56.448l0 99.2C1024.768 393.568 1001.728 422.624 973.376 422.624L973.376 422.624zM512.384 93.472c-127.616 0-231.104 99.84-231.104 223.04 0 123.328 103.488 223.232 231.104 223.232s231.168-99.904 231.168-223.232C743.552 193.312 640 93.472 512.384 93.472L512.384 93.472zM512.384 93.472"  horiz-adv-x="1025" />

    
    <glyph glyph-name="woderenwu" unicode="&#59001;" d="M491.328 225.024 488.832 225.024l0-4.032L475.328 220.992l0 4.032L472.96 225.024c-0.512 0-0.96-0.448-0.96-0.96l0-18.88c0-0.512 0.384-0.96 0.96-0.96l18.368 0c0.512 0 0.896 0.448 0.896 0.96l0 18.88C492.224 224.576 491.84 225.024 491.328 225.024L491.328 225.024zM489.28 217.152 481.28 207.36c0-0.128-0.128-0.192-0.256-0.064l-5.76 4.736c-0.128 0.128-0.128 0.256 0 0.384l0.96 1.216c0.064 0.128 0.256 0.192 0.384 0.064l4.352-3.648 6.848 8.32c0.064 0.192 0.256 0.192 0.384 0.128l1.088-0.96C489.408 217.472 489.472 217.344 489.28 217.152zM485.568 226.176l0 0.768c0 0.768-0.64 1.344-1.344 1.344L480 228.288c-0.768 0-1.344-0.64-1.344-1.344l0-0.768L477.056 226.176l0-3.776 10.112 0 0 3.776L485.568 226.176 485.568 226.176zM482.112 223.808c-0.832 0-1.536 0.704-1.536 1.536 0 0.832 0.704 1.472 1.536 1.472s1.472-0.704 1.472-1.472C483.648 224.384 482.944 223.808 482.112 223.808zM902.208 755.136l-105.6 0 0-173.184-574.08 0L222.528 755.136l-103.68 0c-21.632 0-39.168-17.536-39.168-39.232l0-804.736C79.616-110.464 97.216-128 118.784-128l783.36 0c21.632 0 39.168 17.536 39.168 39.168L941.312 715.904C941.376 737.6 923.84 755.136 902.208 755.136L902.208 755.136zM815.104 419.392l-339.776-416c1.536-5.184-6.144-5.952-11.264-1.664l-247.232 202.432c-5.184 4.16-5.952 11.904-1.728 17.024l41.28 50.496c4.16 5.184 11.904 5.952 17.024 1.728l187.584-155.328 290.624 355.904c4.224 7.168 11.904 7.936 17.088 3.776l47.936-39.168C821.76 434.304 824.768 430.4 815.104 419.392zM657.536 805.568 657.536 837.376C657.536 869.76 631.36 896 598.976 896L421.696 896C389.312 896 363.136 869.76 363.136 837.376l0-31.808L294.272 805.568 294.272 647.68l430.848 0L725.12 805.568 657.536 805.568 657.536 805.568zM510.656 705.792c-35.712 0-64.64 28.928-64.64 64.576 0 35.712 28.928 64.64 64.64 64.64 35.648 0 64.576-28.928 64.576-64.64C575.232 729.536 546.304 705.792 510.656 705.792z"  horiz-adv-x="1024" />

    
    <glyph glyph-name="denglu1" unicode="&#58907;" d="M512 896c282.368 0 512-229.632 512-512s-229.632-512-512-512S0 101.632 0 384 229.632 896 512 896L512 896 512 896zM223.2832 54.3232c-0.256 14.7968 8.6016 28.8256 23.1936 34.6112 23.7568 9.3696 82.6368 36.9152 155.8016 49.92l0 15.5648c-73.1648 71.8336-116.2752 206.2848-116.2752 307.8656 0 145.0496 75.6224 228.1984 207.5648 228.1984 135.4752 0 219.8016-85.2992 219.8016-228.1984 0-49.0496-18.5344-210.176-91.648-298.752l0-19.5584c36.5568-9.0112 112.2816-28.5696 162.048-46.1824 17.2032-6.0928 24.5248-23.7056 21.248-41.0624 90.368 80.384 146.7392 197.2224 146.7392 327.3728 0 242.0224-197.3248 438.8352-439.296 438.8352-242.0224 0-439.04-196.864-439.04-438.8352C73.4208 252.6208 131.4816 134.8096 223.2832 54.3232L223.2832 54.3232 223.2832 54.3232zM223.2832 54.3232"  horiz-adv-x="1024" />

    
    <glyph glyph-name="faburenwu" unicode="&#59010;" d="M89.6 499.2 896 825.6c32 12.8 70.4-12.8 57.6-51.2l-179.2-806.4c-6.4-38.4-57.6-44.8-76.8-19.2l-217.6 281.6 307.2 396.8L435.2 275.2 89.6 416C57.6 428.8 57.6 480 89.6 499.2z"  horiz-adv-x="1024" />

    
    <glyph glyph-name="shuaxin" unicode="&#58962;" d="M693.248 103.936c-54.784-40.448-118.784-60.416-183.808-59.392-8.704 0-17.408 1.024-25.6 1.536-3.584 0.512-6.656 1.024-10.24 1.536-6.656 1.024-13.312 1.536-19.968 3.072-4.096 0.512-8.192 2.048-11.776 3.072-6.656 1.536-12.8 3.072-18.944 5.12-3.072 1.024-5.632 2.048-8.704 3.584-7.168 2.56-14.336 5.12-21.504 8.192-1.536 0.512-3.072 1.536-4.608 2.048-8.192 4.096-16.384 7.68-24.064 12.288-0.512 0-0.512 0.512-1.024 0.512-26.112 15.36-50.176 33.792-71.68 56.32-0.512 0.512-0.512 1.024-1.024 1.024-6.656 6.656-12.8 13.824-18.944 21.504-1.024 1.536-2.56 3.072-3.584 5.12-43.008 56.32-68.608 128-68.608 205.824L281.6 375.296 149.504 583.68l-132.096-208.896 82.432 0c0-91.648 27.136-176.128 73.216-246.272 0.512-1.024 1.024-2.048 1.536-3.072 4.608-7.168 10.24-13.824 15.36-20.48 2.048-2.56 3.584-5.12 5.632-7.68 7.68-9.728 15.36-18.432 23.552-27.648 1.024-1.024 1.536-1.536 2.048-2.56 27.648-29.184 58.88-53.76 92.672-73.216 1.024-0.512 1.536-1.024 2.56-1.536 9.728-5.632 19.968-10.752 30.208-15.36 2.56-1.024 5.12-2.56 7.68-3.584 8.704-4.096 17.92-7.168 26.624-10.24 4.096-1.536 8.704-3.072 12.8-4.608 7.68-2.56 15.872-4.608 24.064-6.656 5.632-1.536 10.752-3.072 16.384-4.096 2.048-0.512 4.608-1.536 6.656-1.536 7.68-1.536 15.36-2.048 23.04-3.072 3.072-0.512 5.632-1.024 8.192-1.536 13.824-1.536 27.648-2.048 41.472-2.048 83.968 0 165.888 27.136 236.032 78.848 22.528 16.384 27.648 49.152 12.288 72.704C746.496 115.2 715.264 120.832 693.248 103.936L693.248 103.936zM925.696 374.784c0 91.136-26.624 176.128-72.704 245.76-0.512 1.024-1.024 2.56-1.536 3.584-6.144 8.704-11.776 16.384-18.432 24.576-0.512 1.024-1.536 2.048-2.048 3.072-41.984 53.248-94.72 94.72-154.112 121.856-1.536 0.512-3.072 1.536-5.12 2.048-9.728 4.096-19.456 7.68-29.184 11.264-3.584 1.024-7.168 2.56-10.24 3.584-8.704 2.56-17.408 5.12-26.112 7.168-4.608 1.024-9.728 2.56-14.848 3.584-2.56 0.512-4.608 1.024-7.168 1.536-6.656 1.024-12.8 1.536-19.456 2.56-4.608 0.512-8.704 1.024-13.312 1.536-10.752 1.024-22.016 1.536-32.768 1.536-2.048 0-4.096 0.512-6.144 0.512-0.512 0-0.512 0-1.024 0-83.968 0-165.888-26.624-236.032-78.336-22.528-16.384-27.648-49.152-12.288-72.704 15.36-23.552 46.592-29.184 69.12-12.8 54.272 39.936 117.248 60.416 182.272 59.392 9.216 0 18.432-0.512 27.648-1.536 3.072 0 5.632-0.512 8.192-1.024 7.68-1.024 14.848-2.048 22.016-3.584 3.072-0.512 6.656-1.536 9.216-2.048 7.168-1.536 14.336-3.584 21.504-5.632 2.56-0.512 4.608-1.536 6.656-2.56 8.192-2.56 15.872-5.632 23.552-9.216 1.024 0 1.536-1.024 2.56-1.024 46.08-20.992 86.528-53.248 118.272-93.184 0 0 0-0.512 0.512-0.512 44.544-57.344 71.168-130.048 71.168-209.408l-82.944 0 132.608-208.896 132.096 208.896L925.696 374.784 925.696 374.784z"  horiz-adv-x="1024" />

    
    <glyph glyph-name="bianji" unicode="&#58947;" d="M250.048 31.744c-33.856 0-61.376 27.52-61.376 61.376L188.672 674.432c0 33.792 27.52 61.376 61.376 61.376l387.52 0c10.112 0 18.304-8.256 18.304-18.304 0-10.112-8.192-18.304-18.304-18.304L271.552 699.2c-25.472 0-46.272-20.736-46.272-46.272l0-538.304c0-25.472 20.736-46.272 46.272-46.272l538.24 0c25.472 0 46.336 20.736 46.336 46.272L856.128 502.208c0 10.112 8.192 18.304 18.24 18.304 10.112 0 18.304-8.192 18.304-18.304l0-409.088c0-33.856-27.52-61.376-61.376-61.376L250.048 31.744zM464.64 310.656c-4.928 0-9.472 1.856-12.928 5.376C448.192 319.488 446.336 323.968 446.336 329.024c0 4.864 1.856 9.344 5.376 12.864l386.88 389.056c3.456 3.456 8.064 5.312 12.928 5.312s9.472-1.856 12.928-5.376c7.104-7.04 7.104-18.688 0-25.792L477.568 315.968C474.048 312.512 469.504 310.656 464.64 310.656z"  horiz-adv-x="1024" />

    
    <glyph glyph-name="weikaishi2016921" unicode="&#59162;" d="M670.96576 8.45824c-48.96256-20.7104-100.99712-31.21152-154.63424-31.21152-53.63712 0-105.65632 10.50112-154.62912 31.21152-47.30368 20.00896-89.78944 48.66048-126.27456 85.15072-36.49024 36.49024-65.13664 78.976-85.1456 126.27968-20.71552 48.96256-31.22176 100.99712-31.22176 154.62912 0 53.632 10.50624 105.66144 31.22176 154.62912 20.00896 47.30368 48.65536 89.78944 85.1456 126.27968 36.48512 36.49024 78.976 65.13664 126.27456 85.1456 48.9728 20.7104 100.99712 31.21664 154.62912 31.21664s105.66144-10.50624 154.62912-31.21664c47.30368-20.00896 89.79456-48.65536 126.27968-85.1456 36.49024-36.49024 65.14176-78.976 85.1456-126.27968 20.71552-48.96768 31.21664-100.99712 31.21664-154.62912 0-53.63712-10.50112-105.66656-31.21664-154.62912-20.00384-47.30368-48.65024-89.78944-85.14048-126.27968C760.7552 57.12384 718.26944 28.47744 670.96576 8.45824zM941.55776 554.15296c-23.24992 54.95296-56.51968 104.30976-98.90304 146.688-42.37312 42.37824-91.72992 75.65824-146.68288 98.90304-56.89856 24.06912-117.34016 36.2752-179.63008 36.2752-62.29504 0-122.73664-12.20608-179.63008-36.2752C281.7536 776.4992 232.3968 743.2192 190.01344 700.84096c-42.37824-42.37824-75.65312-91.73504-98.90304-146.688-24.06912-56.90368-36.2752-117.34016-36.2752-179.63008 0-62.30016 12.20608-122.73664 36.2752-179.64032 23.2448-54.94784 56.51968-104.30976 98.89792-146.68288 42.38336-42.37824 91.73504-75.65312 146.688-98.8928 56.90368-24.06912 117.34528-36.28032 179.63008-36.28032 62.30016 0 122.74176 12.2112 179.64032 36.28032 54.95296 23.23968 104.30976 56.51456 146.68288 98.8928 42.37312 42.37312 75.65312 91.73504 98.90304 146.68288 24.05888 56.90368 36.27008 117.34016 36.27008 179.64032C977.82784 436.8128 965.632 497.24928 941.55776 554.15296zM767.15008 418.74432 265.51808 418.74432c-24.38656 0-44.22656-19.77344-44.22656-44.22656 0-24.45312 19.77344-44.23168 44.22656-44.23168l501.632 0c24.39168 0 44.23168 19.77344 44.23168 44.23168C811.38176 398.97088 791.54176 418.74432 767.15008 418.74432z"  horiz-adv-x="1024" />

    
    <glyph glyph-name="denglu" unicode="&#58979;" d="M968.498523 231.924146l-28.112018 0c0.1129 1.196736 0.338699 2.303153 0.338699 3.52247L940.725204 296.051158c0 77.404013-62.930276 140.356869-140.334289 140.356869-77.358853 0-140.311709-62.952856-140.311709-140.356869l0-60.604542c0-1.241896 0.248379-2.348313 0.361279-3.52247l-16.573671 0c-25.808864 0-46.785623-20.999338-46.785623-46.785623l0-223.157486c0-25.854024 20.999338-46.830783 46.785623-46.830783l324.654289 0c25.786284 0 46.785623 20.999338 46.785623 46.830783l0 223.157486C1015.284146 210.924807 994.262227 231.924146 968.498523 231.924146L968.498523 231.924146zM731.702756 235.446615 731.702756 296.051158c0 37.934289 30.79903 68.755899 68.665579 68.755899 37.889129 0 68.710739-30.82161 68.710739-68.755899l0-60.604542c0-1.241896 0.270959-2.348313 0.383859-3.52247L731.364057 231.924146C731.454377 233.120882 731.702756 234.204719 731.702756 235.446615L731.702756 235.446615zM979.449791-38.018964c0-6.096582-4.922426-10.973848-10.951268-10.973848L643.844234-48.992811c-6.051422 0-10.973848 4.899846-10.973848 10.973848l0 223.157486c0 6.051422 4.945006 10.973848 10.973848 10.973848l324.654289 0c6.051422 0 10.951268-4.945006 10.951268-10.973848L979.449791-38.018964 979.449791-38.018964zM806.148798 85.425535c-14.789857 0-26.824961-11.989945-26.824961-26.824961l0-51.640309 53.627343 0 0 51.640309C832.97376 73.41301 820.961235 85.425535 806.148798 85.425535L806.148798 85.425535zM655.901918 290.699713c-17.02527 6.006262-34.29892 11.199647-51.820948 15.557574-2.551533 1.332216-5.441764 2.122514-8.377155 2.122514l-9.190033 0c-2.867652 0-5.735303-0.699978-8.309416-2.077354-6.186902-3.34183-13.186681-6.164322-20.231621-8.919074-5.441764-2.167674-11.199647-3.883749-17.00269-5.644983-2.641852-0.699978-5.306284-1.535436-7.993297-2.303153-5.035325-1.377376-10.25129-2.461213-15.467255-3.47731-4.606307-0.925777-9.302933-1.670915-14.022139-2.348313-4.041808-0.564498-8.015877-1.196736-12.125424-1.580595-9.280353-0.970937-18.741345-1.580595-28.224917-1.580595-3.54505 0-7.044939 0.451599-10.567409 0.609658-38.837486 1.377376-76.523396 10.13839-104.590254 25.221786-2.506373 1.377376-5.419184 2.077354-8.309416 2.077354l-6.68366 0c-1.354796 0-2.732172-0.13548-4.086968-0.451599-103.958015-24.612128-200.577552-78.194311-279.539581-154.762867-3.36441-3.29667-5.283705-7.948137-5.283705-12.667343l0-62.930276c0-9.754531 7.857817-161.356207 17.612348-161.356207l390.881235 0 105.403131 0 26.328203 0c-20.52516 42.111577-32.063506 89.393958-32.063506 139.408512C552.237442 148.694509 592.203925 232.488644 655.901918 290.699713L655.901918 290.699713zM265.111003 587.241985c0-18.944564 14.518897-34.29892 32.379625-34.29892l0.587078 0c6.70624-90.500375 77.968512-181.02333 165.059316-181.02333 4.967585 0 9.844851 0.361279 14.722117 0.970937 1.716075 0.180639 3.45473 0.519338 5.215965 0.790298 3.003131 0.474179 5.983682 1.061257 8.941654 1.716075 2.167674 0.519338 4.245028 1.151577 6.435281 1.716075 2.325733 0.654818 4.628886 1.445116 6.93204 2.212834 2.483793 0.880617 4.967585 1.716075 7.383638 2.777332 1.422536 0.519338 2.822492 1.241896 4.199868 1.851555 61.010981 27.4572 105.96763 98.109813 111.251334 168.965645l0.474179 0c17.928467 0 32.424785 15.354355 32.424785 34.29892 0 13.976979-7.902977 26.034664-19.125204 31.386108 6.457861 20.32194 10.07065 42.021257 10.07065 64.75925 0 91.742271-58.211069 168.965645-137.624697 192.719735-1.309636 0.361279-2.551533 0.722558-3.838589 1.083837-6.074002 1.625755-12.238324 2.912811-18.470386 4.019228-1.919294 0.316119-3.770849 0.654818-5.712723 0.903197-7.654598 0.970937-15.399515 1.670915-23.279912 1.670915-104.387034 0-188.994046-89.755237-188.994046-200.396913 0-22.737993 3.590209-44.43731 10.16097-64.75925C273.01398 613.276648 265.111003 601.241544 265.111003 587.241985L265.111003 587.241985zM265.111003 587.241985"  horiz-adv-x="1024" />

    
    <glyph glyph-name="bumenguanli" unicode="&#59058;" d="M848.544914 896H175.455086C78.657829 896 0 817.444571 0 720.544914v-673.104457C0-49.342171 78.555429-128 175.455086-128h673.104457C945.342171-128 1024-49.444571 1024 47.455086V720.544914C1024 817.342171 945.444571 896 848.544914 896zM752.932571 152.722286a22.016 22.016 0 0 0-11.966171-3.540115H545.909029a21.942857 21.942857 0 0 0-21.942858 21.942858v49.9712a126.815086 126.815086 0 0 1-75.3664 115.653485 22.001371 22.001371 0 0 0-12.931657 17.905372 22.001371 22.001371 0 0 0 9.157486 20.0704 82.973257 82.973257 0 0 1 35.254857 67.613257 82.958629 82.958629 0 0 1-82.885486 82.885486 82.944 82.944 0 0 1-82.885485-82.885486c0-26.741029 13.165714-52.0192 35.254857-67.613257 6.436571-4.564114 9.918171-12.229486 9.157486-20.0704a22.001371 22.001371 0 0 0-12.931658-17.905372 126.815086 126.815086 0 0 1-75.3664-115.653485c0-2.779429-0.526629-5.500343-1.550628-8.074972-0.4096-1.345829-2.4576-9.8304 5.792914-19.953371h155.4432a21.942857 21.942857 0 0 0 0-43.885715h-164.571428c-5.295543 0-10.386286 1.901714-14.365258 5.354058-28.145371 24.3712-29.140114 53.628343-24.605257 70.100114a170.569143 170.569143 0 0 0 73.493943 136.513828 126.537143 126.537143 0 0 0-29.637486 81.188572c0 69.924571 56.846629 126.7712 126.7712 126.7712s126.7712-56.846629 126.7712-126.7712a126.537143 126.537143 0 0 0-29.637485-81.188572 170.525257 170.525257 0 0 0 73.5232-140.053942v-28.028343h165.946514c21.123657 17.554286 21.796571 47.045486 21.796571 47.367314 0 58.9824-48.186514 108.046629-107.402971 109.275429a21.986743 21.986743 0 0 0-20.977371 17.2032 21.9136 21.9136 0 0 0 11.732114 24.429714c33.616457 16.559543 54.4768 49.737143 54.4768 86.659657a97.045943 97.045943 0 0 1-96.928914 96.928914c-23.493486-0.672914-54.974171-4.885943-63.400229-10.122971a21.928229 21.928229 0 1 0-23.113143 37.302857c22.498743 13.9264 71.445943 16.296229 85.928229 16.705829 78.2336 0 141.399771-63.195429 141.399771-140.814629a139.000686 139.000686 0 0 0-36.746971-94.529829c57.665829-22.235429 98.9184-78.409143 98.9184-143.184457 0-2.340571-0.526629-57.665829-46.548115-87.566628z"  horiz-adv-x="1024" />

    
    <glyph glyph-name="tuichudenglu" unicode="&#59021;" d="M265.728 702.08c-28.8-20.096-54.4-42.88-76.8-68.224-22.4-25.472-41.6-52.864-57.6-82.304s-28.16-60.672-36.48-93.696c-8.32-32.896-12.416-66.304-12.416-100.224 0-58.368 11.392-113.152 34.048-164.224 22.784-51.2 53.504-95.744 92.16-133.632 38.784-38.016 84.224-68.096 136.32-90.368 52.096-22.272 108.032-33.408 167.552-33.408 58.88 0 114.432 11.136 166.528 33.408 52.224 22.272 97.792 52.352 136.832 90.368 39.04 38.016 69.76 82.56 92.16 133.632 22.4 51.2 33.536 105.856 33.536 164.224 0 33.28-3.968 65.92-12.032 97.92-8.064 32-19.328 62.464-34.048 91.264-14.72 28.8-33.024 55.808-54.784 80.896-21.76 25.088-46.08 47.744-72.96 67.712-14.08 9.984-29.312 13.824-45.568 11.264-16.256-2.56-29.568-10.368-39.808-23.552-10.24-13.184-14.08-27.904-11.52-44.288 2.56-16.256 10.624-29.44 24.064-39.552 40.32-28.928 71.168-64.256 92.672-106.368 21.376-41.984 32.128-87.168 32.128-135.552 0-41.472-7.936-80.512-24.064-117.12-16-36.736-37.888-68.736-65.792-96-27.904-27.264-60.544-48.896-97.92-64.896-37.504-16-77.312-23.936-119.552-23.936-42.24 0-82.048 7.936-119.552 23.936-37.504 16-70.144 37.632-97.92 64.896-27.776 27.264-49.92 59.264-66.304 96-16.384 36.736-24.448 75.776-24.448 117.12 0 48.896 11.52 95.232 34.56 138.88 23.04 43.648 55.424 79.488 97.024 107.776 14.08 9.472 22.528 22.272 25.472 38.528 2.944 16.256-0.512 31.36-10.112 45.184-9.6 13.184-22.784 21.12-39.424 24.064-16.512 3.072-31.872-0.256-45.952-9.728z m246.784-347.264c16.64 0 30.848 5.76 42.752 17.408 11.904 11.648 17.792 25.6 17.792 41.856V771.712c0 16.256-5.888 30.464-17.792 42.368s-26.112 17.92-42.752 17.92c-17.28 0-31.872-6.016-43.648-17.92-11.904-11.904-17.792-25.984-17.792-42.368v-357.632c0-16.256 5.888-30.336 17.792-41.856 11.776-11.648 26.368-17.408 43.648-17.408z"  horiz-adv-x="1024" />

    
    <glyph glyph-name="huishouzhan" unicode="&#58908;" d="M926.027 670.845H767.04v63.594c0 52.594-42.45 95.393-94.66 95.393H353.675c-52.594 0-95.393-42.799-95.393-95.393v-63.594H99.297c-17.584 0-31.798-14.214-31.798-31.797s14.214-31.797 31.798-31.797h826.729c17.583 0 31.797 14.213 31.797 31.797s-14.214 31.797-31.797 31.797zM798.838 543.656H226.55c-8.426 0-16.534-3.116-22.512-9.03-5.978-5.979-9.348-13.831-9.348-22.29V34.9c0-52.593 42.862-95.392 95.455-95.392H735.37c52.594 0 95.265 42.798 95.265 95.392V511.86c0 17.52-14.245 31.733-31.797 31.797z m-349.77-445.163c0-17.583-14.214-31.797-31.799-31.797-17.583 0-31.797 14.214-31.797 31.797v349.77c0 17.585 14.214 31.799 31.797 31.799 17.585 0 31.799-14.214 31.799-31.798v-349.77z m190.783 0c0-17.583-14.214-31.797-31.797-31.797-17.584 0-31.798 14.214-31.798 31.797v349.77c0 17.585 14.214 31.799 31.798 31.799 17.583 0 31.797-14.214 31.797-31.798v-349.77z"  horiz-adv-x="1024" />

    
    <glyph glyph-name="jinggao" unicode="&#58921;" d="M478.5152 821.76c57.1392 97.5872 149.8624 97.4336 206.8992 0l452.9152-773.12c57.1392-97.5872 11.7248-176.64-101.2736-176.64H126.8736C13.824-128-31.488-48.7936 25.6 48.64l452.9152 773.12z m104.0384-632.4736a25.344 25.344 0 0 1 25.2928 25.2416V517.632a25.344 25.344 0 0 1-25.2928 25.2928 25.344 25.344 0 0 1-25.2416-25.2416v-303.3088c0-13.7728 11.3664-25.088 25.2416-25.088z m-34.816-95.232a35.84 35.84 0 1 1 71.7312 0 35.84 35.84 0 0 1-71.7312 0z"  horiz-adv-x="1177" />

    
    <glyph glyph-name="renwudatingicon" unicode="&#58894;" d="M512-128A512 512 0 1 0 512 896a512 512 0 0 0 0-1024z m192 768H320a64 64 0 0 1 0-128h384a64 64 0 0 1 0 128z m0-192H320a64 64 0 0 1 0-128h384a64 64 0 0 1 0 128z m0-192H320a64 64 0 0 1 0-128h384a64 64 0 0 1 0 128z"  horiz-adv-x="1024" />

    
    <glyph glyph-name="chuyidong1-copy" unicode="&#58881;" d="M512 431.734154L337.053538 606.72a33.752615 33.752615 0 1 1-47.734153-47.734154L464.226462 384l-174.985847-174.946462a33.752615 33.752615 0 1 1 47.734154-47.734153L512 336.22646199999997l174.946462-174.985847a33.752615 33.752615 0 1 1 47.734153 47.734154L559.773538 384l174.985847 174.946462a33.752615 33.752615 0 1 1-47.734154 47.734153L512 431.773538z"  horiz-adv-x="1024" />

    
    <glyph glyph-name="gerenxinxi" unicode="&#58910;" d="M233.945404 627.01728c38.771851 0 70.202855 38.579514 70.202855 86.150764V809.865264c0 47.57125-31.414976 86.134736-70.202855 86.134736s-70.202855-38.579514-70.202855-86.134736v-96.77736c0-47.57125 31.447032-86.150764 70.202855-86.150764z m912.589031 92.465815c-3.20561 78.841973-76.165289 73.648886-76.165289 73.648886h-41.913348v-136.879539s-0.961683-60.0571-59.303782-60.185325h-117.4856C792.282494 597.926371 794.991235 654.617581 794.991235 654.617581V793.051841H352.04007v-138.43426s2.772852-56.69121-56.627097-58.630604h-16.156274c-37.617831 0.08014-71.453043 0-90.334084 0H177.911345c-58.342099 0.128224-59.303782 60.185324-59.303782 60.185325v136.879539H76.742299S3.718507 798.260957 0.57701 719.418983c-0.464813-3.20561-0.57701-5.080892-0.57701-5.080891s0.112196-728.619083 0.112196-760.899575c0-78.248936 79.386927-78.970198 79.386927-78.970197h988.081142s79.386927 0.73729 79.386928 78.970197c0 32.280491 0.096168 760.883546 0.096168 760.883547s-0.096168 1.89131-0.544954 5.080891zM575.086401 34.861007c0-59.784623-114.616579-73.392437-222.212872-73.392437s-223.511145 13.607814-223.511145 73.392437V51.321813c0 43.884798 79.226647 88.346607 146.752818 112.741297 4.808415 1.795141 28.193338 14.425244 15.162534 48.629101-33.43451 34.09166-58.710744 89.404458-58.710744 143.787629 0 83.345855 55.168545 127.006261 119.681443 127.006261s119.985975-43.644378 119.985975-127.006261c0-54.190834-25.404458-109.263211-58.678687-143.45104h0.192336c-12.822439-38.739795 7.661407-47.923867 10.867017-48.981718 70.876033-23.41698 150.471325-67.526171 150.471325-112.741297z m393.648886 27.456048H718.056599a53.758077 53.758077 0 1 0 0 107.500125h250.678688a53.758077 53.758077 0 1 0 0-107.500125z m0 212.836464H718.056599a53.758077 53.758077 0 1 0 0 107.500125h250.678688a53.758077 53.758077 0 1 0 0-107.500125z m-55.248685 351.799649c38.755823 0 70.202855 38.579514 70.202855 86.150764V809.865264C983.689457 857.436514 949.613824 896 910.841973 896s-67.542199-38.579514-67.542198-86.134736v-96.77736c0-47.57125 31.414976-86.150764 70.202855-86.150764z m0 0"  horiz-adv-x="1150" />

    
    <glyph glyph-name="zhuce2" unicode="&#58880;" d="M789.779-88.84299999999996c-31.732 0-61.762 6.041-90.096 18.134-28.334 12.088-53.08 28.709-74.234 49.865-21.151 21.156-37.772 45.897-49.864 74.229-12.087 28.334-18.134 58.362-18.134 90.1 0 31.732 6.047 61.762 18.134 90.095 12.091 28.333 28.714 52.893 49.864 73.664 21.154 20.78 45.899 37.214 74.234 49.301 28.333 12.091 58.363 18.136 90.096 18.136 31.734 0 61.765-6.044 90.098-18.136 28.334-12.087 52.888-28.521 73.665-49.301 20.779-20.774 37.21-45.334 49.3-73.664 12.088-28.333 18.137-58.362 18.137-90.095 0-31.737-6.049-61.766-18.137-90.1s-28.521-53.073-49.3-74.229c-20.78-21.157-45.332-37.778-73.665-49.865C851.545-82.80200000000002 821.514-88.84299999999996 789.779-88.84299999999996L789.779-88.84299999999996zM904.244 180.88199999999995l-83.865 0 0 78.197c0 10.581-3.395 19.645-10.198 27.203-6.801 7.554-15.489 11.332-26.069 11.332-10.575 0-18.887-3.778-24.929-11.332-6.043-7.559-9.068-16.622-9.068-27.203l0-78.197-73.665 0c-10.575 0-19.641-3.773-27.197-11.334-7.556-7.553-11.333-16.623-11.333-27.197 0-10.575 3.777-18.512 11.333-23.803 7.557-5.288 16.622-7.928 27.197-7.928l73.665 0 0-80.466c0-10.581 3.025-19.645 9.068-27.2 6.042-7.559 14.354-11.332 24.929-11.332 10.58 0 19.267 3.774 26.069 11.332 6.802 7.556 10.198 16.619 10.198 27.2L820.379 110.62l83.865 0 0-2.27c10.579 0 19.644 3.021 27.198 9.063 7.56 6.048 11.333 14.36 11.333 24.936 0 10.574-3.774 19.645-11.333 27.197C923.889 177.10799999999995 914.823 180.88199999999995 904.244 180.88199999999995L904.244 180.88199999999995zM624.321 463.073c-3.023-12.086-6.049-23.042-9.07-32.865-3.021-8.311-6.801-16.811-11.332-25.498-4.534-8.688-9.442-15.301-14.731-19.833-6.801-5.289-11.522-10.957-14.167-17-2.645-6.042-4.915-12.271-6.802-18.697-1.887-6.423-3.966-13.03-6.229-19.832-2.271-6.802-6.049-13.602-11.332-20.399-17.383-22.664-30.416-44.578-39.104-65.732-8.688-21.155-14.731-41.554-18.133-61.201-3.398-19.643-4.345-39.102-2.836-58.362 1.513-19.269 4.533-37.969 9.069-56.1 3.022-13.597 7.555-27.764 13.597-42.499 6.048-14.73 14.925-29.844 26.632-45.333 11.711-15.488 26.634-30.595 44.77-45.332 18.13-14.731 40.794-28.896 67.998-42.499-18.135-3.774-39.291-7.177-63.467-10.199-20.402-2.271-45.521-4.343-75.362-6.229-29.845-1.896-64.036-2.836-102.566-2.836-19.646 0-42.499 0.753-68.564 2.265-26.068 1.512-52.885 3.401-80.465 5.666-27.574 2.269-54.779 4.913-81.599 7.935-26.816 3.022-51.376 6.232-73.665 9.634-22.286 3.397-41.178 6.989-56.666 10.767-15.484 3.776-25.119 7.177-28.898 10.197-6.8 6.049-12.085 22.86-15.864 50.436-3.779 27.57-2.645 63.652 3.398 108.229 3.778 24.933 13.789 44.009 30.032 57.235 16.245 13.22 35.321 23.605 57.235 31.165 21.907 7.555 44.764 14.544 68.563 20.968 23.799 6.419 44.768 15.295 62.902 26.627 14.355 9.067 25.311 17.57 32.864 25.501 7.553 7.935 12.843 16.055 15.864 24.368 3.022 8.306 4.534 17 4.534 26.064 0 9.065-0.377 18.888-1.133 29.469-1.514 15.865-6.984 28.333-16.432 37.396-9.445 9.069-19.456 18.136-30.032 27.199-6.049 4.537-11.333 11.331-15.87 20.401-4.533 9.063-8.307 17.753-11.333 26.063-3.774 9.824-6.797 20.779-9.065 32.865-5.29 1.511-10.198 3.778-14.73 6.801-3.779 3.021-7.936 7.559-12.469 13.603-4.532 6.042-8.688 15.107-12.468 27.199-3.779 11.333-5.101 21.908-3.966 31.729 1.132 9.824 3.214 18.134 6.236 24.936 3.022 8.311 7.177 15.49 12.463 21.531 0 25.688 1.516 51.376 4.539 77.069 3.022 21.907 7.741 45.333 14.167 70.26 6.419 24.936 16.811 47.225 31.166 66.864 13.597 18.892 28.144 34.382 43.628 46.466 15.489 12.091 31.546 21.532 48.166 28.333 16.621 6.802 33.244 11.521 49.867 14.167C380.28 894.677 396.149 896 411.26 896c19.643 0 38.529-2.27 56.664-6.802 18.133-4.531 34.943-10.575 50.433-18.134 15.492-7.553 29.279-16.054 41.365-25.499 12.091-9.441 21.913-19.074 29.468-28.896 17.376-21.909 30.031-46.09 37.969-72.53 7.93-26.446 13.783-51.376 17.563-74.799 3.779-27.199 5.291-54.396 4.534-81.602 4.533-3.774 8.312-8.306 11.332-13.596 3.02-4.532 5.29-10.581 6.801-18.134 1.513-7.553 1.513-17 0-28.333-1.512-14.355-4.534-25.688-9.063-34-4.538-8.313-9.445-14.73-14.736-19.269C637.541 469.122 631.117 465.343 624.321 463.073L624.321 463.073z"  horiz-adv-x="1024" />

    
    <glyph glyph-name="yonghuguanli" unicode="&#58916;" d="M975.553664 31.659013c2.408735 0 2.408735-2.428808 4.817471-2.428808a18.928646 18.928646 0 0 0 9.634942-9.735306v-12.17415a34.836336 34.836336 0 0 0-4.817471-14.602958 53.192907 53.192907 0 0 0-7.226206-12.164114 10.106652 10.106652 0 0 0-9.634942-7.306498 14.392194 14.392194 0 0 0-9.634942-2.428808 8.801921 8.801921 0 0 0-7.226206 2.428808c-2.408735 0-7.226206 2.438845-9.634942 2.438845h-12.043677a103.19424 103.19424 0 0 1-12.043677-2.438845c-4.817471-2.428808-7.125842-4.867653-11.943313-7.296461a46.538776 46.538776 0 0 1-12.043677-24.338264 40.376428 40.376428 0 0 1 4.817471-24.338264 15.054596 15.054596 0 0 0-2.408736-17.061876l-7.226206-7.296461a52.550578 52.550578 0 0 0-12.043677-7.306498c-4.817471-2.428808-9.634942-2.428808-14.452413-4.867653a103.565587 103.565587 0 0 1-12.043677-2.428808 8.801921 8.801921 0 0 0-7.226206 2.428808 12.916844 12.916844 0 0 0-4.817471 7.306498 35.448556 35.448556 0 0 1-14.452413 21.899419 36.020631 36.020631 0 0 1-26.496089 9.735306 39.904717 39.904717 0 0 1-26.49609-9.735306 133.56438 133.56438 0 0 1-16.861148-21.899419 20.574615 20.574615 0 0 0-7.226206-7.306498c0-2.428808-2.408735-2.428808-7.226207-2.428808a21.558182 21.558182 0 0 0-12.043677 2.428808c-4.817471 2.438845-9.634942 2.438845-14.452412 4.867653a52.550578 52.550578 0 0 0-12.043678 7.306498 32.638365 32.638365 0 0 0-9.534577 7.296461 9.032758 9.032758 0 0 0-2.408736 7.296461 26.706854 26.706854 0 0 0 2.408736 12.17415 35.378302 35.378302 0 0 1 2.408735 21.89942 36.422087 36.422087 0 0 1-9.634942 21.909456 20.775343 20.775343 0 0 1-14.452412 7.296461 35.448556 35.448556 0 0 1-16.861148 2.428808c-4.817471 0-12.043677-2.428808-16.861148-2.428808h-12.043677a96.640473 96.640473 0 0 0-9.634942 7.296461l-7.226206 14.602958a34.836336 34.836336 0 0 0-4.817471 14.602959 20.524433 20.524433 0 0 0 0 12.17415 11.240765 11.240765 0 0 0 7.226206 12.164114 50.563371 50.563371 0 0 1 26.49609 17.061876 35.127392 35.127392 0 0 1 9.634941 24.338264 28.36286 28.36286 0 0 1-9.634941 24.338265 44.541533 44.541533 0 0 1-21.678619 17.061876l-7.226206 7.306497a14.733432 14.733432 0 0 0-2.408736 9.735306 26.696818 26.696818 0 0 0 2.408736 12.164114 18.717882 18.717882 0 0 0 4.81747 12.17415c2.408735 4.857616 4.817471 7.296461 7.226207 12.164114a12.946953 12.946953 0 0 0 4.817471 7.306497 11.963386 11.963386 0 0 0 14.452412 0 41.14923 41.14923 0 0 1 24.087355-2.438844 45.786046 45.786046 0 0 1 24.087354 12.164114 53.473927 53.473927 0 0 1 7.226206 12.17415 32.367382 32.367382 0 0 1 2.308372 14.602959v19.460575a5.018199 5.018199 0 0 1-2.308372 4.877689v4.867653a71.459151 71.459151 0 0 0 9.534578 14.592922l14.452412 7.306497c4.817471 2.428808 9.634942 2.428808 14.452413 4.867653h12.043677a8.781848 8.781848 0 0 0 7.226206-2.438845c2.408735-2.428808 2.408735-4.857616 4.817471-7.296461a43.778766 43.778766 0 0 1 14.452413-21.899419 42.484071 42.484071 0 0 1 24.087354-9.735306 48.174709 48.174709 0 0 1 26.49609 7.296461 52.901852 52.901852 0 0 1 16.861148 21.89942 12.886735 12.886735 0 0 0 4.817471 7.306497 6.754496 6.754496 0 0 0 7.226206 4.867653 21.487927 21.487927 0 0 0 12.043677-2.438845 34.043461 34.043461 0 0 0 14.452413-4.857616 52.901852 52.901852 0 0 0 12.043677-7.306497 33.631968 33.631968 0 0 0 7.226206-9.735306 9.032758 9.032758 0 0 0 2.408736-7.296461c0-2.438845 0-4.877689-2.408736-4.877689a42.443926 42.443926 0 0 1-2.408735-24.328228 46.538776 46.538776 0 0 1 12.043677-24.338265 45.163789 45.163789 0 0 1 23.98699-12.17415 47.171069 47.171069 0 0 1 26.49609 4.877689 8.801921 8.801921 0 0 0 7.226206 2.428809 12.726152 12.726152 0 0 0 7.226207-4.867653 103.174168 103.174168 0 0 0 12.043677-17.061876c2.408735-7.306497 4.817471-17.061876 7.226206-24.338264a22.15033 22.15033 0 0 0-2.408735-12.174151 12.776334 12.776334 0 0 0-7.226207-4.867653 30.671231 30.671231 0 0 1-21.678619-17.061876 36.80347 36.80347 0 0 1-9.634941-26.767072 41.410177 41.410177 0 0 1 7.226206-24.338264 37.4458 37.4458 0 0 1 19.269883-14.57285z m-96.249053 77.87241a122.293505 122.293505 0 0 1-19.269883 29.205917 86.493675 86.493675 0 0 1-28.904825 19.470611 76.276622 76.276622 0 0 1-33.722296 7.306497 95.797415 95.797415 0 0 1-36.131032-7.306497 200.366642 200.366642 0 0 1-28.904825-19.470611 203.196906 203.196906 0 0 1-19.269883-29.205917 189.567478 189.567478 0 0 1-4.817471-36.502379 98.517279 98.517279 0 0 1 7.226206-36.502378 87.67797 87.67797 0 0 1 19.269883-29.205917 86.644221 86.644221 0 0 1 28.904826-19.470611 141.051532 141.051532 0 0 1 33.722296-4.867653 95.797415 95.797415 0 0 1 36.131031 7.306497 86.493675 86.493675 0 0 1 28.904825 19.470612 87.527424 87.527424 0 0 1 19.269884 29.19588 145.076128 145.076128 0 0 1 4.81747 34.07357 98.477133 98.477133 0 0 1-7.226206 36.502379z m-341.337883-72.713701a284.030053 284.030053 0 0 1 52.49036-164.596921c-193.501746-0.14051-407.176652-0.351274-460.168831 0-93.63959 0.712584-96.650509 46.960304-96.65051 90.327578 0 209.14849 142.316118 396.437706 333.208402 450.523853-84.004648 44.983134-126.057154 128.807127-126.057155 225.818947a259.400733 259.400733 0 0 0 518.781394 0c0-96.971674-46.167429-180.875958-130.172078-225.818947a451.085891 451.085891 0 0 0 169.916212-92.234494 284.903219 284.903219 0 0 1-261.347794-284.020016z"  horiz-adv-x="1024" />

    
    <glyph glyph-name="renwuguanli" unicode="&#58886;" d="M597.874345 895.049338L132.875182 895.976969A130.508123 130.508123 0 0 1 0 768.027829v-767.694841a130.476136 130.476136 0 0 1 132.875182-127.949141h458.473757a38.544678 38.544678 0 0 0-4.510207 5.149953l-38.032882 66.469579a38.384742 38.384742 0 0 0 13.914469 52.42716l44.590275 25.973675a214.986543 214.986543 0 0 0 0 83.838674L569.373674 128.282128H232.515575a31.987285 31.987285 0 1 0 0 63.97457H553.380031l33.58665 58.824617a37.872946 37.872946 0 0 0 52.043313 14.042418l44.974122-26.165599a228.773063 228.773063 0 0 0 71.555557 42.319178V313.808381a38.384742 38.384742 0 0 0 38.064869 38.384742H863.656696V640.078689L597.874345 895.049338zM631.109134 320.205838H232.515575a31.987285 31.987285 0 1 0 0 63.97457H631.109134a31.987285 31.987285 0 1 0 0-63.97457z m33.266777 319.872851a65.222074 65.222074 0 0 0-66.469579 63.97457V832.002399l199.312773-191.92371H664.375911zM1010.798208 19.077537l-29.716188 17.273134a144.102719 144.102719 0 0 1 0 55.881787l29.716188 17.305121a25.589828 25.589828 0 0 1 9.3083 34.962102l-25.365917 44.334377-0.159937 0.255899a25.205981 25.205981 0 0 1-34.51428 9.116376l-30.004074-17.497045a152.195502 152.195502 0 0 1-47.693042 28.244773V230.64144a25.589828 25.589828 0 0 1-25.397904 25.589828h-50.731834a25.589828 25.589828 0 0 1-25.397905-25.589828v-21.719367c-17.497045-6.429444-33.682611-15.993643-47.693042-28.244772l-30.004073 17.497045-0.191924 0.127949a25.269955 25.269955 0 0 1-34.482293-9.500224l-25.365917-44.334377a25.589828 25.589828 0 0 1 9.3083-34.962102l29.716188-17.273134a144.262656 144.262656 0 0 1 0-55.913775l-29.716188-17.273134a25.589828 25.589828 0 0 1-9.3083-34.962102l25.365917-44.334377c0.063975-0.095962 0.127949-0.159936 0.127949-0.255899a25.269955 25.269955 0 0 1 34.546268-9.116376l30.004073 17.497045c14.010431-12.25113 30.195997-21.815328 47.693042-28.244773v-21.655392a25.589828 25.589828 0 0 1 25.397905-25.589828h50.731834a25.589828 25.589828 0 0 1 25.397904 25.589828v21.719367a152.195502 152.195502 0 0 1 47.693042 28.244773l30.004074-17.497045a25.269955 25.269955 0 0 1 34.674217 9.372274l25.365917 44.334377a25.589828 25.589828 0 0 1-9.3083 34.930116zM895.06821 64.307558a63.654697 63.654697 0 0 0-63.366811-63.97457H831.669411a64.006557 64.006557 0 0 0-64.550341 63.398799 63.97457 63.97457 0 1 0 127.94914 1.151542V64.307558zM831.669411 102.6923a38.384742 38.384742 0 1 1 38.032882-38.704615V64.307558A38.384742 38.384742 0 0 1 831.669411 102.6923z"  horiz-adv-x="1024" />

    
    <glyph glyph-name="news" unicode="&#59033;" d="M513.6 824c-254.4 0-459.2-179.2-459.2-400 0-136 78.4-256 196.8-329.6v-123.2c0-16 11.2-27.2 25.6-27.2 4.8 0 9.6 1.6 12.8 3.2l124.8 83.2c32-6.4 64-8 97.6-8 254.4 0 459.2 179.2 459.2 400 1.6 222.4-204.8 401.6-457.6 401.6zM307.2 358.4c-30.4 0-54.4 25.6-54.4 54.4 0 30.4 25.6 54.4 54.4 54.4 30.4 0 54.4-25.6 54.4-54.4 1.6-28.8-24-54.4-54.4-54.4z m209.6 0c-30.4 0-54.4 25.6-54.4 54.4 0 30.4 25.6 54.4 54.4 54.4 30.4 0 54.4-25.6 54.4-54.4 0-28.8-25.6-54.4-54.4-54.4z m201.6 0c-30.4 0-54.4 25.6-54.4 54.4 0 30.4 25.6 54.4 54.4 54.4 30.4 0 54.4-25.6 54.4-54.4 0-28.8-24-54.4-54.4-54.4z m0 0"  horiz-adv-x="1024" />

    
    <glyph glyph-name="kaishirenwu" unicode="&#59023;" d="M512 896a512 512 0 1 1 0-1024A512 512 0 0 1 512 896z m0-976.018286A464.018286 464.018286 0 1 0 512 848.018286a464.018286 464.018286 0 0 0 0-928.036572z m152.137143 500.662857L441.929143 567.369143c-34.962286 20.187429-63.561143 3.657143-63.561143-36.644572v-293.449142c0-40.301714 28.525714-56.832 63.561143-36.644572l222.061714 146.724572c34.962286 20.114286 34.962286 53.174857 0 73.289142z"  horiz-adv-x="1024" />

    
    <glyph glyph-name="yonghu" unicode="&#58902;" d="M500.7 887.9c141.1 0 255.5-112.5 255.5-251.3S641.8 385.2 500.7 385.2 245.1 497.8 245.1 636.6 359.6 887.9 500.7 887.9z m0 0c141.1 0 255.5-112.5 255.5-251.3S641.8 385.2 500.7 385.2 245.1 497.8 245.1 636.6 359.6 887.9 500.7 887.9z m-95.9-586.5h213c182.3 0 330.1-145.3 330.1-324.7v-20.9c0-70.7-147.8-73.4-330.1-73.4h-213c-182.3 0-330.1 0.1-330.1 73.4v20.9c0.1 179.4 147.8 324.7 330.1 324.7z m0 0"  horiz-adv-x="1024" />

    
    <glyph glyph-name="yiwancheng" unicode="&#59630;" d="M512-64a448 448 0 1 0 448 448 448 448 0 0 0-448-448zM512 768a384 384 0 1 1 384-384 384 384 0 0 1-384 384z m76.8-544L499.2 320H512v13.504L678.4 512H768v-96zM320 320L256 384l128 64 64-64v-64h51.2l89.984-96L512 128z"  horiz-adv-x="1024" />

    
    <glyph glyph-name="jinhangzhong" unicode="&#59631;" d="M512-64a448 448 0 1 0 448 448 448 448 0 0 0-448-448zM512 768a384 384 0 1 1 384-384 384 384 0 0 1-384 384z m128-512H384V576a64 64 0 0 0 128 0v-192h128a64 64 0 0 0 0-128z"  horiz-adv-x="1024" />

    
    <glyph glyph-name="xinjian" unicode="&#58996;" d="M940.4 431.4C927.8 444 910.8 451 893 451H579.1V764.9c0 37.1-30 67.1-67.1 67.1-37.1 0-67.1-30-67.1-67.1v-313.8H131.1C94 451.1 64 421 64 384c0-37 30-67.1 67.1-67.1h313.8v-313.8c0-37.1 30-67.1 67.1-67.1 37.1 0 67.1 30 67.1 67.1V316.9h313.8c37 0 67.1 30 67.1 67.1 0 17.8-7.1 34.9-19.6 47.4z"  horiz-adv-x="1024" />

    
    <glyph glyph-name="faqiliucheng" unicode="&#58940;" d="M704.512 677.888V896H199.68C129.024 896 71.68 838.656 71.68 768v-763.904c0-70.656 57.344-128 128-128h634.88C905.216-123.904 962.56-66.56 962.56 4.096V637.952H744.448c-21.504 0-39.936 18.432-39.936 39.936z m54.272-296.96c0-17.408-14.336-31.744-31.744-31.744H548.864v-177.152c0-17.408-14.336-31.744-31.744-31.744s-31.744 14.336-31.744 31.744V348.16H308.224c-17.408 0-31.744 14.336-31.744 31.744 0 17.408 14.336 31.744 31.744 31.744h177.152V589.824c0 17.408 14.336 31.744 31.744 31.744s31.744-14.336 31.744-31.744v-177.152h177.152c18.432 0 32.768-14.336 32.768-31.744zM787.456 680.96H962.56L747.52 896v-175.104c0-21.504 18.432-39.936 39.936-39.936z"  horiz-adv-x="1024" />

    


  </font>
</defs>
</svg>
